<mxfile host="www.draw.io" modified="2019-11-08T14:28:47.694Z" agent="Mozilla/5.0 (Windows NT 6.1; rv:70.0) Gecko/20100101 Firefox/70.0" etag="5Du9r2XhgKkqnNNWO7l_" version="12.2.3" type="github" pages="1">
  <diagram id="7vONbLCQ9WCZ58bNW_wz" name="Page-1">
    <mxGraphModel dx="2560" dy="2330" grid="1" gridSize="10" guides="1" tooltips="1" connect="1" arrows="1" fold="1" page="1" pageScale="1" pageWidth="827" pageHeight="1169" math="0" shadow="0">
      <root>
        <mxCell id="0"/>
        <mxCell id="1" parent="0"/>
        <mxCell id="MQ059FCpELGgsUm1LF6T-42" value="" style="strokeWidth=2;whiteSpace=wrap;html=1;align=center;fontSize=14;" parent="1" vertex="1">
          <mxGeometry x="507.5" y="790" width="160" height="260" as="geometry"/>
        </mxCell>
        <mxCell id="MQ059FCpELGgsUm1LF6T-41" value="" style="strokeWidth=2;whiteSpace=wrap;html=1;align=center;fontSize=14;" parent="1" vertex="1">
          <mxGeometry x="433" y="240" width="160" height="240" as="geometry"/>
        </mxCell>
        <mxCell id="MQ059FCpELGgsUm1LF6T-2" value="Empleado" style="strokeWidth=2;whiteSpace=wrap;html=1;align=center;fontSize=14;" parent="1" vertex="1">
          <mxGeometry x="533.5" y="100" width="120" height="40" as="geometry"/>
        </mxCell>
        <mxCell id="MQ059FCpELGgsUm1LF6T-3" value="Local" style="strokeWidth=2;whiteSpace=wrap;html=1;align=center;fontSize=14;" parent="1" vertex="1">
          <mxGeometry x="527" y="810" width="120" height="40" as="geometry"/>
        </mxCell>
        <mxCell id="MQ059FCpELGgsUm1LF6T-7" value="Tiene" style="shape=rhombus;strokeWidth=2;fontSize=17;perimeter=rhombusPerimeter;whiteSpace=wrap;html=1;align=center;fontSize=14;" parent="1" vertex="1">
          <mxGeometry x="527" y="890" width="120" height="40" as="geometry"/>
        </mxCell>
        <mxCell id="MQ059FCpELGgsUm1LF6T-9" value="Planta" style="shape=ext;strokeWidth=2;margin=10;double=1;whiteSpace=wrap;html=1;align=center;fontSize=14;" parent="1" vertex="1">
          <mxGeometry x="527" y="970" width="120" height="60" as="geometry"/>
        </mxCell>
        <mxCell id="MQ059FCpELGgsUm1LF6T-10" value="Posee" style="shape=rhombus;double=1;strokeWidth=2;fontSize=17;perimeter=rhombusPerimeter;whiteSpace=wrap;html=1;align=center;fontSize=14;" parent="1" vertex="1">
          <mxGeometry x="537" y="1090" width="100" height="70" as="geometry"/>
        </mxCell>
        <mxCell id="MQ059FCpELGgsUm1LF6T-11" value="Habitación" style="shape=ext;strokeWidth=2;margin=10;double=1;whiteSpace=wrap;html=1;align=center;fontSize=14;" parent="1" vertex="1">
          <mxGeometry x="527" y="1190" width="120" height="60" as="geometry"/>
        </mxCell>
        <mxCell id="MQ059FCpELGgsUm1LF6T-13" value="Contiene" style="shape=rhombus;strokeWidth=2;fontSize=17;perimeter=rhombusPerimeter;whiteSpace=wrap;html=1;align=center;fontSize=14;" parent="1" vertex="1">
          <mxGeometry x="527" y="1290" width="120" height="40" as="geometry"/>
        </mxCell>
        <mxCell id="MQ059FCpELGgsUm1LF6T-14" value="Equipo" style="strokeWidth=2;whiteSpace=wrap;html=1;align=center;fontSize=14;" parent="1" vertex="1">
          <mxGeometry x="527" y="1370" width="120" height="40" as="geometry"/>
        </mxCell>
        <mxCell id="MQ059FCpELGgsUm1LF6T-17" value="" style="triangle;whiteSpace=wrap;html=1;rotation=-90;strokeWidth=2;" parent="1" vertex="1">
          <mxGeometry x="581.5" y="168" width="25" height="40" as="geometry"/>
        </mxCell>
        <mxCell id="MQ059FCpELGgsUm1LF6T-23" value="Desarrollador" style="strokeWidth=2;whiteSpace=wrap;html=1;align=center;fontSize=14;" parent="1" vertex="1">
          <mxGeometry x="773" y="260" width="120" height="40" as="geometry"/>
        </mxCell>
        <mxCell id="MQ059FCpELGgsUm1LF6T-24" value="Participa" style="shape=rhombus;strokeWidth=2;fontSize=17;perimeter=rhombusPerimeter;whiteSpace=wrap;html=1;align=center;fontSize=14;" parent="1" vertex="1">
          <mxGeometry x="773" y="340" width="120" height="40" as="geometry"/>
        </mxCell>
        <mxCell id="MQ059FCpELGgsUm1LF6T-25" value="Proyecto" style="strokeWidth=2;whiteSpace=wrap;html=1;align=center;fontSize=14;" parent="1" vertex="1">
          <mxGeometry x="773" y="420" width="120" height="40" as="geometry"/>
        </mxCell>
        <mxCell id="MQ059FCpELGgsUm1LF6T-27" value="" style="endArrow=none;html=1;exitX=1;exitY=0.5;exitDx=0;exitDy=0;strokeWidth=2;" parent="1" source="MQ059FCpELGgsUm1LF6T-17" edge="1">
          <mxGeometry width="50" height="50" relative="1" as="geometry">
            <mxPoint x="543.5" y="190" as="sourcePoint"/>
            <mxPoint x="593.5" y="140" as="targetPoint"/>
          </mxGeometry>
        </mxCell>
        <mxCell id="MQ059FCpELGgsUm1LF6T-28" value="" style="endArrow=none;html=1;exitX=0.033;exitY=1.075;exitDx=0;exitDy=0;strokeWidth=2;exitPerimeter=0;" parent="1" source="MQ059FCpELGgsUm1LF6T-17" edge="1">
          <mxGeometry width="50" height="50" relative="1" as="geometry">
            <mxPoint x="603.5" y="185" as="sourcePoint"/>
            <mxPoint x="833" y="200" as="targetPoint"/>
          </mxGeometry>
        </mxCell>
        <mxCell id="MQ059FCpELGgsUm1LF6T-29" value="" style="endArrow=none;html=1;strokeWidth=2;exitX=0.5;exitY=0;exitDx=0;exitDy=0;" parent="1" source="MQ059FCpELGgsUm1LF6T-23" edge="1">
          <mxGeometry width="50" height="50" relative="1" as="geometry">
            <mxPoint x="782.5" y="260" as="sourcePoint"/>
            <mxPoint x="833" y="200" as="targetPoint"/>
          </mxGeometry>
        </mxCell>
        <mxCell id="MQ059FCpELGgsUm1LF6T-30" value="Vendedor" style="strokeWidth=2;whiteSpace=wrap;html=1;align=center;fontSize=14;" parent="1" vertex="1">
          <mxGeometry x="453.5" y="260" width="120" height="40" as="geometry"/>
        </mxCell>
        <mxCell id="MQ059FCpELGgsUm1LF6T-31" value="Vende" style="shape=rhombus;strokeWidth=2;fontSize=17;perimeter=rhombusPerimeter;whiteSpace=wrap;html=1;align=center;fontSize=14;" parent="1" vertex="1">
          <mxGeometry x="453.5" y="340" width="120" height="40" as="geometry"/>
        </mxCell>
        <mxCell id="MQ059FCpELGgsUm1LF6T-32" value="Producto" style="strokeWidth=2;whiteSpace=wrap;html=1;align=center;fontSize=14;" parent="1" vertex="1">
          <mxGeometry x="453.5" y="420" width="120" height="40" as="geometry"/>
        </mxCell>
        <mxCell id="MQ059FCpELGgsUm1LF6T-33" value="" style="triangle;whiteSpace=wrap;html=1;rotation=-90;strokeWidth=2;" parent="1" vertex="1">
          <mxGeometry x="501" y="510" width="25" height="40" as="geometry"/>
        </mxCell>
        <mxCell id="MQ059FCpELGgsUm1LF6T-34" value="Aplicación" style="strokeWidth=2;whiteSpace=wrap;html=1;align=center;fontSize=14;" parent="1" vertex="1">
          <mxGeometry x="594" y="580" width="120" height="40" as="geometry"/>
        </mxCell>
        <mxCell id="MQ059FCpELGgsUm1LF6T-35" value="Sitio web" style="strokeWidth=2;whiteSpace=wrap;html=1;align=center;fontSize=14;" parent="1" vertex="1">
          <mxGeometry x="453.5" y="580" width="120" height="40" as="geometry"/>
        </mxCell>
        <mxCell id="MQ059FCpELGgsUm1LF6T-36" value="Página web" style="strokeWidth=2;whiteSpace=wrap;html=1;align=center;fontSize=14;" parent="1" vertex="1">
          <mxGeometry x="313" y="580" width="120" height="40" as="geometry"/>
        </mxCell>
        <mxCell id="MQ059FCpELGgsUm1LF6T-37" value="A" style="shape=rhombus;strokeWidth=2;fontSize=17;perimeter=rhombusPerimeter;whiteSpace=wrap;html=1;align=center;fontSize=14;" parent="1" vertex="1">
          <mxGeometry x="283" y="420" width="120" height="40" as="geometry"/>
        </mxCell>
        <mxCell id="MQ059FCpELGgsUm1LF6T-38" value="Cliente" style="strokeWidth=2;whiteSpace=wrap;html=1;align=center;fontSize=14;" parent="1" vertex="1">
          <mxGeometry x="133" y="420" width="120" height="40" as="geometry"/>
        </mxCell>
        <mxCell id="MQ059FCpELGgsUm1LF6T-39" value="" style="endArrow=none;html=1;strokeWidth=2;" parent="1" edge="1">
          <mxGeometry width="50" height="50" relative="1" as="geometry">
            <mxPoint x="513.5" y="260" as="sourcePoint"/>
            <mxPoint x="514" y="200" as="targetPoint"/>
          </mxGeometry>
        </mxCell>
        <mxCell id="MQ059FCpELGgsUm1LF6T-40" value="" style="endArrow=none;html=1;strokeWidth=2;" parent="1" edge="1">
          <mxGeometry width="50" height="50" relative="1" as="geometry">
            <mxPoint x="513" y="200" as="sourcePoint"/>
            <mxPoint x="573" y="200" as="targetPoint"/>
          </mxGeometry>
        </mxCell>
        <mxCell id="MQ059FCpELGgsUm1LF6T-43" value="Emplea" style="shape=rhombus;strokeWidth=2;fontSize=17;perimeter=rhombusPerimeter;whiteSpace=wrap;html=1;align=center;fontSize=14;" parent="1" vertex="1">
          <mxGeometry x="527" y="690" width="120" height="40" as="geometry"/>
        </mxCell>
        <mxCell id="MQ059FCpELGgsUm1LF6T-45" value="" style="endArrow=none;html=1;exitX=0.033;exitY=1.075;exitDx=0;exitDy=0;strokeWidth=2;exitPerimeter=0;entryX=0.5;entryY=0;entryDx=0;entryDy=0;" parent="1" target="MQ059FCpELGgsUm1LF6T-3" edge="1">
          <mxGeometry width="50" height="50" relative="1" as="geometry">
            <mxPoint x="587.5" y="730.175" as="sourcePoint"/>
            <mxPoint x="724" y="730.5" as="targetPoint"/>
          </mxGeometry>
        </mxCell>
        <mxCell id="MQ059FCpELGgsUm1LF6T-46" value="" style="endArrow=none;html=1;exitX=0.033;exitY=1.075;exitDx=0;exitDy=0;strokeWidth=2;exitPerimeter=0;" parent="1" edge="1">
          <mxGeometry width="50" height="50" relative="1" as="geometry">
            <mxPoint x="587" y="850.175" as="sourcePoint"/>
            <mxPoint x="586.5" y="890" as="targetPoint"/>
          </mxGeometry>
        </mxCell>
        <mxCell id="MQ059FCpELGgsUm1LF6T-47" value="" style="endArrow=none;html=1;exitX=0.033;exitY=1.075;exitDx=0;exitDy=0;strokeWidth=2;exitPerimeter=0;" parent="1" edge="1">
          <mxGeometry width="50" height="50" relative="1" as="geometry">
            <mxPoint x="587.5" y="930.1750000000001" as="sourcePoint"/>
            <mxPoint x="587" y="970" as="targetPoint"/>
          </mxGeometry>
        </mxCell>
        <mxCell id="MQ059FCpELGgsUm1LF6T-48" value="" style="endArrow=none;html=1;exitX=0.5;exitY=1;exitDx=0;exitDy=0;strokeWidth=2;entryX=0.5;entryY=0;entryDx=0;entryDy=0;" parent="1" source="MQ059FCpELGgsUm1LF6T-42" target="MQ059FCpELGgsUm1LF6T-10" edge="1">
          <mxGeometry width="50" height="50" relative="1" as="geometry">
            <mxPoint x="579" y="1050.175" as="sourcePoint"/>
            <mxPoint x="715.4999999999998" y="1050.5" as="targetPoint"/>
          </mxGeometry>
        </mxCell>
        <mxCell id="MQ059FCpELGgsUm1LF6T-49" value="" style="endArrow=none;html=1;exitX=0.5;exitY=1;exitDx=0;exitDy=0;strokeWidth=2;" parent="1" edge="1">
          <mxGeometry width="50" height="50" relative="1" as="geometry">
            <mxPoint x="587" y="1160" as="sourcePoint"/>
            <mxPoint x="586.5" y="1190" as="targetPoint"/>
          </mxGeometry>
        </mxCell>
        <mxCell id="MQ059FCpELGgsUm1LF6T-50" value="" style="endArrow=none;html=1;exitX=0.5;exitY=1;exitDx=0;exitDy=0;strokeWidth=2;entryX=0.5;entryY=0;entryDx=0;entryDy=0;" parent="1" target="MQ059FCpELGgsUm1LF6T-13" edge="1">
          <mxGeometry width="50" height="50" relative="1" as="geometry">
            <mxPoint x="587.5" y="1250" as="sourcePoint"/>
            <mxPoint x="587" y="1280" as="targetPoint"/>
          </mxGeometry>
        </mxCell>
        <mxCell id="MQ059FCpELGgsUm1LF6T-51" value="" style="endArrow=none;html=1;exitX=0.5;exitY=1;exitDx=0;exitDy=0;strokeWidth=2;entryX=0.5;entryY=0;entryDx=0;entryDy=0;" parent="1" edge="1">
          <mxGeometry width="50" height="50" relative="1" as="geometry">
            <mxPoint x="586.5" y="1330" as="sourcePoint"/>
            <mxPoint x="586" y="1370" as="targetPoint"/>
          </mxGeometry>
        </mxCell>
        <mxCell id="MQ059FCpELGgsUm1LF6T-52" value="" style="endArrow=none;html=1;strokeWidth=2;exitX=0.5;exitY=0;exitDx=0;exitDy=0;" parent="1" source="MQ059FCpELGgsUm1LF6T-24" edge="1">
          <mxGeometry width="50" height="50" relative="1" as="geometry">
            <mxPoint x="833.5" y="330" as="sourcePoint"/>
            <mxPoint x="833.5" y="300" as="targetPoint"/>
          </mxGeometry>
        </mxCell>
        <mxCell id="MQ059FCpELGgsUm1LF6T-53" value="" style="endArrow=none;html=1;strokeWidth=2;exitX=0.5;exitY=0;exitDx=0;exitDy=0;" parent="1" edge="1">
          <mxGeometry width="50" height="50" relative="1" as="geometry">
            <mxPoint x="832.4999999999998" y="420" as="sourcePoint"/>
            <mxPoint x="833" y="380" as="targetPoint"/>
          </mxGeometry>
        </mxCell>
        <mxCell id="MQ059FCpELGgsUm1LF6T-55" value="Deriva en" style="shape=rhombus;strokeWidth=2;fontSize=17;perimeter=rhombusPerimeter;whiteSpace=wrap;html=1;align=center;fontSize=14;" parent="1" vertex="1">
          <mxGeometry x="623" y="420" width="120" height="40" as="geometry"/>
        </mxCell>
        <mxCell id="MQ059FCpELGgsUm1LF6T-56" value="" style="endArrow=none;html=1;strokeWidth=2;entryX=1;entryY=0.5;entryDx=0;entryDy=0;" parent="1" target="MQ059FCpELGgsUm1LF6T-32" edge="1">
          <mxGeometry width="50" height="50" relative="1" as="geometry">
            <mxPoint x="622.5" y="440" as="sourcePoint"/>
            <mxPoint x="623" y="380" as="targetPoint"/>
          </mxGeometry>
        </mxCell>
        <mxCell id="MQ059FCpELGgsUm1LF6T-57" value="" style="endArrow=none;html=1;strokeWidth=2;entryX=1;entryY=0.5;entryDx=0;entryDy=0;" parent="1" edge="1">
          <mxGeometry width="50" height="50" relative="1" as="geometry">
            <mxPoint x="773" y="440" as="sourcePoint"/>
            <mxPoint x="743.0000000000002" y="439.5" as="targetPoint"/>
          </mxGeometry>
        </mxCell>
        <mxCell id="MQ059FCpELGgsUm1LF6T-58" value="" style="endArrow=none;html=1;strokeWidth=2;" parent="1" edge="1">
          <mxGeometry width="50" height="50" relative="1" as="geometry">
            <mxPoint x="513" y="520" as="sourcePoint"/>
            <mxPoint x="513" y="480" as="targetPoint"/>
          </mxGeometry>
        </mxCell>
        <mxCell id="MQ059FCpELGgsUm1LF6T-59" value="" style="endArrow=none;html=1;strokeWidth=2;entryX=0;entryY=0.5;entryDx=0;entryDy=0;" parent="1" target="MQ059FCpELGgsUm1LF6T-33" edge="1">
          <mxGeometry width="50" height="50" relative="1" as="geometry">
            <mxPoint x="513" y="580" as="sourcePoint"/>
            <mxPoint x="513" y="540" as="targetPoint"/>
          </mxGeometry>
        </mxCell>
        <mxCell id="MQ059FCpELGgsUm1LF6T-60" value="" style="endArrow=none;html=1;strokeWidth=2;" parent="1" edge="1">
          <mxGeometry width="50" height="50" relative="1" as="geometry">
            <mxPoint x="653" y="580" as="sourcePoint"/>
            <mxPoint x="654" y="543" as="targetPoint"/>
          </mxGeometry>
        </mxCell>
        <mxCell id="MQ059FCpELGgsUm1LF6T-61" value="" style="endArrow=none;html=1;strokeWidth=2;entryX=0;entryY=0.5;entryDx=0;entryDy=0;" parent="1" edge="1">
          <mxGeometry width="50" height="50" relative="1" as="geometry">
            <mxPoint x="372.5" y="580" as="sourcePoint"/>
            <mxPoint x="373" y="542.5" as="targetPoint"/>
          </mxGeometry>
        </mxCell>
        <mxCell id="MQ059FCpELGgsUm1LF6T-62" value="" style="endArrow=none;html=1;strokeWidth=2;exitX=-0.003;exitY=-0.052;exitDx=0;exitDy=0;exitPerimeter=0;" parent="1" source="MQ059FCpELGgsUm1LF6T-33" edge="1">
          <mxGeometry width="50" height="50" relative="1" as="geometry">
            <mxPoint x="493" y="537.5" as="sourcePoint"/>
            <mxPoint x="373" y="543" as="targetPoint"/>
          </mxGeometry>
        </mxCell>
        <mxCell id="MQ059FCpELGgsUm1LF6T-63" value="" style="endArrow=none;html=1;strokeWidth=2;entryX=-0.071;entryY=0.991;entryDx=0;entryDy=0;entryPerimeter=0;" parent="1" target="MQ059FCpELGgsUm1LF6T-33" edge="1">
          <mxGeometry width="50" height="50" relative="1" as="geometry">
            <mxPoint x="654" y="544" as="sourcePoint"/>
            <mxPoint x="536" y="541" as="targetPoint"/>
          </mxGeometry>
        </mxCell>
        <mxCell id="MQ059FCpELGgsUm1LF6T-64" value="" style="endArrow=none;html=1;strokeWidth=2;" parent="1" edge="1">
          <mxGeometry width="50" height="50" relative="1" as="geometry">
            <mxPoint x="433.0000000000002" y="439" as="sourcePoint"/>
            <mxPoint x="403" y="439" as="targetPoint"/>
          </mxGeometry>
        </mxCell>
        <mxCell id="MQ059FCpELGgsUm1LF6T-65" value="" style="endArrow=none;html=1;strokeWidth=2;" parent="1" edge="1">
          <mxGeometry width="50" height="50" relative="1" as="geometry">
            <mxPoint x="283.0000000000002" y="440" as="sourcePoint"/>
            <mxPoint x="253" y="440" as="targetPoint"/>
          </mxGeometry>
        </mxCell>
        <mxCell id="MQ059FCpELGgsUm1LF6T-66" value="N" style="text;html=1;strokeColor=none;fillColor=none;align=center;verticalAlign=middle;whiteSpace=wrap;rounded=0;strokeWidth=1;fontStyle=1" parent="1" vertex="1">
          <mxGeometry x="243" y="420" width="40" height="20" as="geometry"/>
        </mxCell>
        <mxCell id="MQ059FCpELGgsUm1LF6T-68" value="N" style="text;html=1;strokeColor=none;fillColor=none;align=center;verticalAlign=middle;whiteSpace=wrap;rounded=0;strokeWidth=1;fontStyle=1" parent="1" vertex="1">
          <mxGeometry x="403" y="420" width="40" height="20" as="geometry"/>
        </mxCell>
        <mxCell id="MQ059FCpELGgsUm1LF6T-71" value="N" style="text;html=1;strokeColor=none;fillColor=none;align=center;verticalAlign=middle;whiteSpace=wrap;rounded=0;strokeWidth=1;fontStyle=1" parent="1" vertex="1">
          <mxGeometry x="501" y="400" width="40" height="20" as="geometry"/>
        </mxCell>
        <mxCell id="MQ059FCpELGgsUm1LF6T-72" value="" style="endArrow=none;html=1;strokeWidth=2;" parent="1" edge="1">
          <mxGeometry width="50" height="50" relative="1" as="geometry">
            <mxPoint x="513" y="340" as="sourcePoint"/>
            <mxPoint x="513" y="299.9999999999999" as="targetPoint"/>
          </mxGeometry>
        </mxCell>
        <mxCell id="MQ059FCpELGgsUm1LF6T-73" value="" style="endArrow=none;html=1;strokeWidth=2;" parent="1" edge="1">
          <mxGeometry width="50" height="50" relative="1" as="geometry">
            <mxPoint x="513.5" y="420" as="sourcePoint"/>
            <mxPoint x="513.5" y="379.9999999999999" as="targetPoint"/>
          </mxGeometry>
        </mxCell>
        <mxCell id="MQ059FCpELGgsUm1LF6T-74" value="N" style="text;html=1;strokeColor=none;fillColor=none;align=center;verticalAlign=middle;whiteSpace=wrap;rounded=0;strokeWidth=1;fontStyle=1" parent="1" vertex="1">
          <mxGeometry x="501" y="300" width="40" height="20" as="geometry"/>
        </mxCell>
        <mxCell id="MQ059FCpELGgsUm1LF6T-75" value="N" style="text;html=1;strokeColor=none;fillColor=none;align=center;verticalAlign=middle;whiteSpace=wrap;rounded=0;strokeWidth=1;fontStyle=1" parent="1" vertex="1">
          <mxGeometry x="561.5" y="420" width="40" height="20" as="geometry"/>
        </mxCell>
        <mxCell id="MQ059FCpELGgsUm1LF6T-76" value="N" style="text;html=1;strokeColor=none;fillColor=none;align=center;verticalAlign=middle;whiteSpace=wrap;rounded=0;strokeWidth=1;fontStyle=1" parent="1" vertex="1">
          <mxGeometry x="823" y="400" width="40" height="20" as="geometry"/>
        </mxCell>
        <mxCell id="MQ059FCpELGgsUm1LF6T-77" value="N" style="text;html=1;strokeColor=none;fillColor=none;align=center;verticalAlign=middle;whiteSpace=wrap;rounded=0;strokeWidth=1;fontStyle=1" parent="1" vertex="1">
          <mxGeometry x="823" y="300" width="40" height="20" as="geometry"/>
        </mxCell>
        <mxCell id="MQ059FCpELGgsUm1LF6T-78" value="N" style="text;html=1;strokeColor=none;fillColor=none;align=center;verticalAlign=middle;whiteSpace=wrap;rounded=0;strokeWidth=1;fontStyle=1" parent="1" vertex="1">
          <mxGeometry x="643" y="100" width="40" height="20" as="geometry"/>
        </mxCell>
        <mxCell id="MQ059FCpELGgsUm1LF6T-79" value="N" style="text;html=1;strokeColor=none;fillColor=none;align=center;verticalAlign=middle;whiteSpace=wrap;rounded=0;strokeWidth=1;fontStyle=1" parent="1" vertex="1">
          <mxGeometry x="577.5" y="790" width="40" height="20" as="geometry"/>
        </mxCell>
        <mxCell id="MQ059FCpELGgsUm1LF6T-80" value="N" style="text;html=1;strokeColor=none;fillColor=none;align=center;verticalAlign=middle;whiteSpace=wrap;rounded=0;strokeWidth=1;fontStyle=1" parent="1" vertex="1">
          <mxGeometry x="577.5" y="950" width="40" height="20" as="geometry"/>
        </mxCell>
        <mxCell id="MQ059FCpELGgsUm1LF6T-81" value="N" style="text;html=1;strokeColor=none;fillColor=none;align=center;verticalAlign=middle;whiteSpace=wrap;rounded=0;strokeWidth=1;fontStyle=1" parent="1" vertex="1">
          <mxGeometry x="577.5" y="1170" width="40" height="20" as="geometry"/>
        </mxCell>
        <mxCell id="MQ059FCpELGgsUm1LF6T-82" value="N" style="text;html=1;strokeColor=none;fillColor=none;align=center;verticalAlign=middle;whiteSpace=wrap;rounded=0;strokeWidth=1;fontStyle=1" parent="1" vertex="1">
          <mxGeometry x="577.5" y="1350" width="40" height="20" as="geometry"/>
        </mxCell>
        <mxCell id="MQ059FCpELGgsUm1LF6T-83" value="1" style="text;html=1;strokeColor=none;fillColor=none;align=center;verticalAlign=middle;whiteSpace=wrap;rounded=0;strokeWidth=1;fontStyle=1" parent="1" vertex="1">
          <mxGeometry x="743" y="420" width="40" height="20" as="geometry"/>
        </mxCell>
        <mxCell id="MQ059FCpELGgsUm1LF6T-85" value="1" style="text;html=1;strokeColor=none;fillColor=none;align=center;verticalAlign=middle;whiteSpace=wrap;rounded=0;strokeWidth=1;fontStyle=1" parent="1" vertex="1">
          <mxGeometry x="577.5" y="1050" width="40" height="20" as="geometry"/>
        </mxCell>
        <mxCell id="MQ059FCpELGgsUm1LF6T-86" value="1" style="text;html=1;strokeColor=none;fillColor=none;align=center;verticalAlign=middle;whiteSpace=wrap;rounded=0;strokeWidth=1;fontStyle=1" parent="1" vertex="1">
          <mxGeometry x="577.5" y="1250" width="40" height="20" as="geometry"/>
        </mxCell>
        <mxCell id="MQ059FCpELGgsUm1LF6T-87" value="1" style="text;html=1;strokeColor=none;fillColor=none;align=center;verticalAlign=middle;whiteSpace=wrap;rounded=0;strokeWidth=1;fontStyle=1" parent="1" vertex="1">
          <mxGeometry x="577.5" y="850" width="40" height="20" as="geometry"/>
        </mxCell>
        <mxCell id="zq5FpyVHTdPAyqJpxwwP-1" value="Nombre Completo" style="text;html=1;strokeColor=none;fillColor=none;align=center;verticalAlign=middle;whiteSpace=wrap;rounded=0;" parent="1" vertex="1">
          <mxGeometry x="383" y="90" width="110" height="20" as="geometry"/>
        </mxCell>
        <mxCell id="zq5FpyVHTdPAyqJpxwwP-2" value="CI" style="text;html=1;strokeColor=none;fillColor=none;align=center;verticalAlign=middle;whiteSpace=wrap;rounded=0;fontStyle=4" parent="1" vertex="1">
          <mxGeometry x="463" y="110" width="30" height="20" as="geometry"/>
        </mxCell>
        <mxCell id="zq5FpyVHTdPAyqJpxwwP-3" value="Telefono*" style="text;html=1;strokeColor=none;fillColor=none;align=center;verticalAlign=middle;whiteSpace=wrap;rounded=0;" parent="1" vertex="1">
          <mxGeometry x="433" y="130" width="60" height="20" as="geometry"/>
        </mxCell>
        <mxCell id="zq5FpyVHTdPAyqJpxwwP-4" value="Nombre" style="text;html=1;strokeColor=none;fillColor=none;align=center;verticalAlign=middle;whiteSpace=wrap;rounded=0;" parent="1" vertex="1">
          <mxGeometry x="303" y="80" width="57" height="20" as="geometry"/>
        </mxCell>
        <mxCell id="zq5FpyVHTdPAyqJpxwwP-5" value="Apellido" style="text;html=1;strokeColor=none;fillColor=none;align=center;verticalAlign=middle;whiteSpace=wrap;rounded=0;" parent="1" vertex="1">
          <mxGeometry x="303" y="100" width="57" height="20" as="geometry"/>
        </mxCell>
        <mxCell id="zq5FpyVHTdPAyqJpxwwP-6" value="" style="endArrow=none;html=1;exitX=1;exitY=0.5;exitDx=0;exitDy=0;strokeWidth=2;entryX=0;entryY=0.5;entryDx=0;entryDy=0;" parent="1" source="zq5FpyVHTdPAyqJpxwwP-3" edge="1">
          <mxGeometry width="50" height="50" relative="1" as="geometry">
            <mxPoint x="254.5" y="120.17499999999995" as="sourcePoint"/>
            <mxPoint x="533.5" y="121.5" as="targetPoint"/>
          </mxGeometry>
        </mxCell>
        <mxCell id="zq5FpyVHTdPAyqJpxwwP-7" value="" style="endArrow=none;html=1;exitX=1;exitY=0.5;exitDx=0;exitDy=0;strokeWidth=2;" parent="1" source="zq5FpyVHTdPAyqJpxwwP-2" edge="1">
          <mxGeometry width="50" height="50" relative="1" as="geometry">
            <mxPoint x="485.5" y="108.5" as="sourcePoint"/>
            <mxPoint x="533" y="120" as="targetPoint"/>
          </mxGeometry>
        </mxCell>
        <mxCell id="zq5FpyVHTdPAyqJpxwwP-8" value="" style="endArrow=none;html=1;exitX=1;exitY=0.5;exitDx=0;exitDy=0;strokeWidth=2;" parent="1" source="zq5FpyVHTdPAyqJpxwwP-1" edge="1">
          <mxGeometry width="50" height="50" relative="1" as="geometry">
            <mxPoint x="493" y="79.5" as="sourcePoint"/>
            <mxPoint x="533" y="120" as="targetPoint"/>
          </mxGeometry>
        </mxCell>
        <mxCell id="zq5FpyVHTdPAyqJpxwwP-9" value="" style="endArrow=none;html=1;exitX=1;exitY=0.5;exitDx=0;exitDy=0;strokeWidth=2;entryX=0;entryY=0.5;entryDx=0;entryDy=0;" parent="1" source="zq5FpyVHTdPAyqJpxwwP-4" target="zq5FpyVHTdPAyqJpxwwP-1" edge="1">
          <mxGeometry width="50" height="50" relative="1" as="geometry">
            <mxPoint x="343" y="70" as="sourcePoint"/>
            <mxPoint x="383" y="90" as="targetPoint"/>
          </mxGeometry>
        </mxCell>
        <mxCell id="zq5FpyVHTdPAyqJpxwwP-11" value="" style="endArrow=none;html=1;exitX=1;exitY=0.5;exitDx=0;exitDy=0;strokeWidth=2;entryX=0;entryY=0.5;entryDx=0;entryDy=0;" parent="1" source="zq5FpyVHTdPAyqJpxwwP-5" target="zq5FpyVHTdPAyqJpxwwP-1" edge="1">
          <mxGeometry width="50" height="50" relative="1" as="geometry">
            <mxPoint x="373" y="115" as="sourcePoint"/>
            <mxPoint x="396" y="125" as="targetPoint"/>
          </mxGeometry>
        </mxCell>
        <mxCell id="zq5FpyVHTdPAyqJpxwwP-12" value="Fecha asignación" style="text;html=1;strokeColor=none;fillColor=none;align=center;verticalAlign=middle;whiteSpace=wrap;rounded=0;" parent="1" vertex="1">
          <mxGeometry x="628" y="350" width="110" height="20" as="geometry"/>
        </mxCell>
        <mxCell id="zq5FpyVHTdPAyqJpxwwP-13" value="" style="endArrow=none;html=1;strokeWidth=2;exitX=1;exitY=0.5;exitDx=0;exitDy=0;" parent="1" source="zq5FpyVHTdPAyqJpxwwP-12" edge="1">
          <mxGeometry width="50" height="50" relative="1" as="geometry">
            <mxPoint x="743" y="360" as="sourcePoint"/>
            <mxPoint x="773" y="360" as="targetPoint"/>
          </mxGeometry>
        </mxCell>
        <mxCell id="zq5FpyVHTdPAyqJpxwwP-15" value="Fecha" style="text;html=1;strokeColor=none;fillColor=none;align=center;verticalAlign=middle;whiteSpace=wrap;rounded=0;" parent="1" vertex="1">
          <mxGeometry x="333" y="350" width="50" height="20" as="geometry"/>
        </mxCell>
        <mxCell id="zq5FpyVHTdPAyqJpxwwP-16" value="" style="endArrow=none;html=1;strokeWidth=2;exitX=1;exitY=0.5;exitDx=0;exitDy=0;" parent="1" source="zq5FpyVHTdPAyqJpxwwP-15" edge="1">
          <mxGeometry width="50" height="50" relative="1" as="geometry">
            <mxPoint x="393" y="360" as="sourcePoint"/>
            <mxPoint x="455.5" y="360" as="targetPoint"/>
          </mxGeometry>
        </mxCell>
        <mxCell id="zq5FpyVHTdPAyqJpxwwP-17" value="" style="endArrow=none;html=1;strokeWidth=2;exitX=1;exitY=0.5;exitDx=0;exitDy=0;entryX=0;entryY=0.5;entryDx=0;entryDy=0;" parent="1" source="zq5FpyVHTdPAyqJpxwwP-18" target="zq5FpyVHTdPAyqJpxwwP-15" edge="1">
          <mxGeometry width="50" height="50" relative="1" as="geometry">
            <mxPoint x="277" y="280" as="sourcePoint"/>
            <mxPoint x="349.5" y="280" as="targetPoint"/>
          </mxGeometry>
        </mxCell>
        <mxCell id="zq5FpyVHTdPAyqJpxwwP-18" value="Día" style="text;html=1;strokeColor=none;fillColor=none;align=center;verticalAlign=middle;whiteSpace=wrap;rounded=0;" parent="1" vertex="1">
          <mxGeometry x="278" y="330" width="35" height="20" as="geometry"/>
        </mxCell>
        <mxCell id="zq5FpyVHTdPAyqJpxwwP-19" value="Mes" style="text;html=1;strokeColor=none;fillColor=none;align=center;verticalAlign=middle;whiteSpace=wrap;rounded=0;" parent="1" vertex="1">
          <mxGeometry x="283" y="350" width="30" height="20" as="geometry"/>
        </mxCell>
        <mxCell id="zq5FpyVHTdPAyqJpxwwP-20" value="Año" style="text;html=1;strokeColor=none;fillColor=none;align=center;verticalAlign=middle;whiteSpace=wrap;rounded=0;" parent="1" vertex="1">
          <mxGeometry x="283" y="370" width="30" height="20" as="geometry"/>
        </mxCell>
        <mxCell id="zq5FpyVHTdPAyqJpxwwP-26" value="" style="endArrow=none;html=1;strokeWidth=2;exitX=1;exitY=0.5;exitDx=0;exitDy=0;entryX=0;entryY=0.5;entryDx=0;entryDy=0;" parent="1" source="zq5FpyVHTdPAyqJpxwwP-19" target="zq5FpyVHTdPAyqJpxwwP-15" edge="1">
          <mxGeometry width="50" height="50" relative="1" as="geometry">
            <mxPoint x="321.5" y="380" as="sourcePoint"/>
            <mxPoint x="341.5" y="400" as="targetPoint"/>
          </mxGeometry>
        </mxCell>
        <mxCell id="zq5FpyVHTdPAyqJpxwwP-27" value="" style="endArrow=none;html=1;strokeWidth=2;exitX=1;exitY=0.5;exitDx=0;exitDy=0;entryX=0;entryY=0.5;entryDx=0;entryDy=0;" parent="1" source="zq5FpyVHTdPAyqJpxwwP-20" target="zq5FpyVHTdPAyqJpxwwP-15" edge="1">
          <mxGeometry width="50" height="50" relative="1" as="geometry">
            <mxPoint x="323" y="380" as="sourcePoint"/>
            <mxPoint x="343" y="380" as="targetPoint"/>
          </mxGeometry>
        </mxCell>
        <mxCell id="zq5FpyVHTdPAyqJpxwwP-28" value="" style="endArrow=none;html=1;strokeWidth=2;entryX=0;entryY=0.5;entryDx=0;entryDy=0;exitX=1;exitY=0.5;exitDx=0;exitDy=0;" parent="1" source="zq5FpyVHTdPAyqJpxwwP-29" target="MQ059FCpELGgsUm1LF6T-31" edge="1">
          <mxGeometry width="50" height="50" relative="1" as="geometry">
            <mxPoint x="403" y="310" as="sourcePoint"/>
            <mxPoint x="433" y="320" as="targetPoint"/>
          </mxGeometry>
        </mxCell>
        <mxCell id="zq5FpyVHTdPAyqJpxwwP-29" value="Cantidad" style="text;html=1;strokeColor=none;fillColor=none;align=center;verticalAlign=middle;whiteSpace=wrap;rounded=0;" parent="1" vertex="1">
          <mxGeometry x="323" y="310" width="59" height="20" as="geometry"/>
        </mxCell>
        <mxCell id="zq5FpyVHTdPAyqJpxwwP-30" value="Nombre Completo" style="text;html=1;strokeColor=none;fillColor=none;align=center;verticalAlign=middle;whiteSpace=wrap;rounded=0;" parent="1" vertex="1">
          <mxGeometry x="143" y="500" width="110" height="20" as="geometry"/>
        </mxCell>
        <mxCell id="zq5FpyVHTdPAyqJpxwwP-31" value="CI" style="text;html=1;strokeColor=none;fillColor=none;align=center;verticalAlign=middle;whiteSpace=wrap;rounded=0;fontStyle=4" parent="1" vertex="1">
          <mxGeometry x="70" y="430" width="20" height="20" as="geometry"/>
        </mxCell>
        <mxCell id="zq5FpyVHTdPAyqJpxwwP-32" value="Telefono*" style="text;html=1;strokeColor=none;fillColor=none;align=center;verticalAlign=middle;whiteSpace=wrap;rounded=0;" parent="1" vertex="1">
          <mxGeometry x="30" y="400" width="60" height="20" as="geometry"/>
        </mxCell>
        <mxCell id="zq5FpyVHTdPAyqJpxwwP-33" value="Nombre" style="text;html=1;strokeColor=none;fillColor=none;align=center;verticalAlign=middle;whiteSpace=wrap;rounded=0;" parent="1" vertex="1">
          <mxGeometry x="63" y="490" width="57" height="20" as="geometry"/>
        </mxCell>
        <mxCell id="zq5FpyVHTdPAyqJpxwwP-34" value="Apellido" style="text;html=1;strokeColor=none;fillColor=none;align=center;verticalAlign=middle;whiteSpace=wrap;rounded=0;" parent="1" vertex="1">
          <mxGeometry x="63" y="510" width="57" height="20" as="geometry"/>
        </mxCell>
        <mxCell id="zq5FpyVHTdPAyqJpxwwP-35" value="" style="endArrow=none;html=1;exitX=1;exitY=0.5;exitDx=0;exitDy=0;strokeWidth=2;entryX=0;entryY=0.5;entryDx=0;entryDy=0;" parent="1" target="zq5FpyVHTdPAyqJpxwwP-30" edge="1">
          <mxGeometry width="50" height="50" relative="1" as="geometry">
            <mxPoint x="120.00000000000023" y="500" as="sourcePoint"/>
            <mxPoint x="143" y="500" as="targetPoint"/>
          </mxGeometry>
        </mxCell>
        <mxCell id="zq5FpyVHTdPAyqJpxwwP-36" value="" style="endArrow=none;html=1;exitX=1;exitY=0.5;exitDx=0;exitDy=0;strokeWidth=2;entryX=0;entryY=0.5;entryDx=0;entryDy=0;" parent="1" source="zq5FpyVHTdPAyqJpxwwP-34" target="zq5FpyVHTdPAyqJpxwwP-30" edge="1">
          <mxGeometry width="50" height="50" relative="1" as="geometry">
            <mxPoint x="133" y="525" as="sourcePoint"/>
            <mxPoint x="156" y="535" as="targetPoint"/>
          </mxGeometry>
        </mxCell>
        <mxCell id="zq5FpyVHTdPAyqJpxwwP-37" value="" style="endArrow=none;html=1;strokeWidth=2;entryX=0;entryY=0.5;entryDx=0;entryDy=0;" parent="1" edge="1">
          <mxGeometry width="50" height="50" relative="1" as="geometry">
            <mxPoint x="193" y="500" as="sourcePoint"/>
            <mxPoint x="193" y="460" as="targetPoint"/>
          </mxGeometry>
        </mxCell>
        <mxCell id="zq5FpyVHTdPAyqJpxwwP-38" value="" style="endArrow=none;html=1;strokeWidth=2;" parent="1" edge="1">
          <mxGeometry width="50" height="50" relative="1" as="geometry">
            <mxPoint x="133" y="440" as="sourcePoint"/>
            <mxPoint x="93" y="410" as="targetPoint"/>
          </mxGeometry>
        </mxCell>
        <mxCell id="zq5FpyVHTdPAyqJpxwwP-41" value="" style="endArrow=none;html=1;strokeWidth=2;" parent="1" edge="1">
          <mxGeometry width="50" height="50" relative="1" as="geometry">
            <mxPoint x="133" y="440" as="sourcePoint"/>
            <mxPoint x="93" y="440" as="targetPoint"/>
          </mxGeometry>
        </mxCell>
        <mxCell id="zq5FpyVHTdPAyqJpxwwP-47" value="Nombre" style="text;html=1;strokeColor=none;fillColor=none;align=center;verticalAlign=middle;whiteSpace=wrap;rounded=0;fontStyle=4" parent="1" vertex="1">
          <mxGeometry x="808" y="480" width="50" height="20" as="geometry"/>
        </mxCell>
        <mxCell id="zq5FpyVHTdPAyqJpxwwP-48" value="Fecha inicio" style="text;html=1;strokeColor=none;fillColor=none;align=center;verticalAlign=middle;whiteSpace=wrap;rounded=0;" parent="1" vertex="1">
          <mxGeometry x="808" y="500" width="70" height="20" as="geometry"/>
        </mxCell>
        <mxCell id="zq5FpyVHTdPAyqJpxwwP-49" value="Fecha fin" style="text;html=1;strokeColor=none;fillColor=none;align=center;verticalAlign=middle;whiteSpace=wrap;rounded=0;" parent="1" vertex="1">
          <mxGeometry x="808" y="520" width="60" height="20" as="geometry"/>
        </mxCell>
        <mxCell id="zq5FpyVHTdPAyqJpxwwP-50" value="Descripción" style="text;html=1;strokeColor=none;fillColor=none;align=center;verticalAlign=middle;whiteSpace=wrap;rounded=0;" parent="1" vertex="1">
          <mxGeometry x="808" y="540" width="70" height="20" as="geometry"/>
        </mxCell>
        <mxCell id="zq5FpyVHTdPAyqJpxwwP-56" value="" style="endArrow=none;html=1;strokeWidth=2;" parent="1" edge="1">
          <mxGeometry width="50" height="50" relative="1" as="geometry">
            <mxPoint x="792" y="460" as="sourcePoint"/>
            <mxPoint x="792" y="550" as="targetPoint"/>
          </mxGeometry>
        </mxCell>
        <mxCell id="zq5FpyVHTdPAyqJpxwwP-57" value="" style="endArrow=none;html=1;strokeWidth=2;exitX=0;exitY=0.5;exitDx=0;exitDy=0;" parent="1" source="zq5FpyVHTdPAyqJpxwwP-50" edge="1">
          <mxGeometry width="50" height="50" relative="1" as="geometry">
            <mxPoint x="803" y="550" as="sourcePoint"/>
            <mxPoint x="793" y="550" as="targetPoint"/>
          </mxGeometry>
        </mxCell>
        <mxCell id="zq5FpyVHTdPAyqJpxwwP-58" value="" style="endArrow=none;html=1;strokeWidth=2;exitX=0;exitY=0.5;exitDx=0;exitDy=0;" parent="1" edge="1">
          <mxGeometry width="50" height="50" relative="1" as="geometry">
            <mxPoint x="808" y="530" as="sourcePoint"/>
            <mxPoint x="793" y="530" as="targetPoint"/>
          </mxGeometry>
        </mxCell>
        <mxCell id="zq5FpyVHTdPAyqJpxwwP-59" value="" style="endArrow=none;html=1;strokeWidth=2;exitX=0;exitY=0.5;exitDx=0;exitDy=0;" parent="1" edge="1">
          <mxGeometry width="50" height="50" relative="1" as="geometry">
            <mxPoint x="808" y="510" as="sourcePoint"/>
            <mxPoint x="793" y="510" as="targetPoint"/>
          </mxGeometry>
        </mxCell>
        <mxCell id="zq5FpyVHTdPAyqJpxwwP-60" value="" style="endArrow=none;html=1;strokeWidth=2;exitX=0;exitY=0.5;exitDx=0;exitDy=0;" parent="1" edge="1">
          <mxGeometry width="50" height="50" relative="1" as="geometry">
            <mxPoint x="808" y="490" as="sourcePoint"/>
            <mxPoint x="793" y="490" as="targetPoint"/>
          </mxGeometry>
        </mxCell>
        <mxCell id="zq5FpyVHTdPAyqJpxwwP-61" value="" style="endArrow=none;html=1;strokeWidth=2;" parent="1" edge="1">
          <mxGeometry width="50" height="50" relative="1" as="geometry">
            <mxPoint x="687.5" y="1000" as="sourcePoint"/>
            <mxPoint x="647" y="999.5" as="targetPoint"/>
          </mxGeometry>
        </mxCell>
        <mxCell id="zq5FpyVHTdPAyqJpxwwP-62" value="Número" style="text;html=1;strokeColor=none;fillColor=none;align=center;verticalAlign=middle;whiteSpace=wrap;rounded=0;fontStyle=4" parent="1" vertex="1">
          <mxGeometry x="687.5" y="990" width="50" height="20" as="geometry"/>
        </mxCell>
        <mxCell id="zq5FpyVHTdPAyqJpxwwP-63" value="COD" style="text;html=1;strokeColor=none;fillColor=none;align=center;verticalAlign=middle;whiteSpace=wrap;rounded=0;fontStyle=4" parent="1" vertex="1">
          <mxGeometry x="687.5" y="798" width="40" height="20" as="geometry"/>
        </mxCell>
        <mxCell id="zq5FpyVHTdPAyqJpxwwP-64" value="Ubicación" style="text;html=1;strokeColor=none;fillColor=none;align=center;verticalAlign=middle;whiteSpace=wrap;rounded=0;" parent="1" vertex="1">
          <mxGeometry x="687.5" y="830" width="60" height="20" as="geometry"/>
        </mxCell>
        <mxCell id="zq5FpyVHTdPAyqJpxwwP-65" value="Departamento" style="text;html=1;strokeColor=none;fillColor=none;align=center;verticalAlign=middle;whiteSpace=wrap;rounded=0;" parent="1" vertex="1">
          <mxGeometry x="767.5" y="808" width="80" height="20" as="geometry"/>
        </mxCell>
        <mxCell id="zq5FpyVHTdPAyqJpxwwP-66" value="Ciudad" style="text;html=1;strokeColor=none;fillColor=none;align=center;verticalAlign=middle;whiteSpace=wrap;rounded=0;" parent="1" vertex="1">
          <mxGeometry x="767.5" y="830" width="50" height="20" as="geometry"/>
        </mxCell>
        <mxCell id="zq5FpyVHTdPAyqJpxwwP-67" value="Dirección" style="text;html=1;strokeColor=none;fillColor=none;align=center;verticalAlign=middle;whiteSpace=wrap;rounded=0;" parent="1" vertex="1">
          <mxGeometry x="767.5" y="850" width="60" height="20" as="geometry"/>
        </mxCell>
        <mxCell id="zq5FpyVHTdPAyqJpxwwP-70" value="" style="endArrow=none;html=1;exitX=1;exitY=0.5;exitDx=0;exitDy=0;strokeWidth=2;entryX=0;entryY=0.5;entryDx=0;entryDy=0;" parent="1" source="MQ059FCpELGgsUm1LF6T-3" target="zq5FpyVHTdPAyqJpxwwP-63" edge="1">
          <mxGeometry width="50" height="50" relative="1" as="geometry">
            <mxPoint x="678" y="818.175" as="sourcePoint"/>
            <mxPoint x="677.5" y="858" as="targetPoint"/>
          </mxGeometry>
        </mxCell>
        <mxCell id="zq5FpyVHTdPAyqJpxwwP-72" value="" style="endArrow=none;html=1;exitX=1;exitY=0.5;exitDx=0;exitDy=0;strokeWidth=2;entryX=0;entryY=0.5;entryDx=0;entryDy=0;" parent="1" source="MQ059FCpELGgsUm1LF6T-3" target="zq5FpyVHTdPAyqJpxwwP-64" edge="1">
          <mxGeometry width="50" height="50" relative="1" as="geometry">
            <mxPoint x="657" y="840" as="sourcePoint"/>
            <mxPoint x="697.5" y="818" as="targetPoint"/>
          </mxGeometry>
        </mxCell>
        <mxCell id="zq5FpyVHTdPAyqJpxwwP-73" value="" style="endArrow=none;html=1;exitX=1;exitY=0.5;exitDx=0;exitDy=0;strokeWidth=2;entryX=0;entryY=0.5;entryDx=0;entryDy=0;" parent="1" target="zq5FpyVHTdPAyqJpxwwP-65" edge="1">
          <mxGeometry width="50" height="50" relative="1" as="geometry">
            <mxPoint x="747.5" y="841" as="sourcePoint"/>
            <mxPoint x="788" y="819" as="targetPoint"/>
          </mxGeometry>
        </mxCell>
        <mxCell id="zq5FpyVHTdPAyqJpxwwP-74" value="" style="endArrow=none;html=1;exitX=0;exitY=0.5;exitDx=0;exitDy=0;strokeWidth=2;entryX=1;entryY=0.5;entryDx=0;entryDy=0;" parent="1" source="zq5FpyVHTdPAyqJpxwwP-66" target="zq5FpyVHTdPAyqJpxwwP-64" edge="1">
          <mxGeometry width="50" height="50" relative="1" as="geometry">
            <mxPoint x="747.5" y="881.5" as="sourcePoint"/>
            <mxPoint x="767.5" y="858.5" as="targetPoint"/>
          </mxGeometry>
        </mxCell>
        <mxCell id="zq5FpyVHTdPAyqJpxwwP-75" value="" style="endArrow=none;html=1;exitX=0;exitY=0.5;exitDx=0;exitDy=0;strokeWidth=2;entryX=1;entryY=0.5;entryDx=0;entryDy=0;" parent="1" source="zq5FpyVHTdPAyqJpxwwP-67" target="zq5FpyVHTdPAyqJpxwwP-64" edge="1">
          <mxGeometry width="50" height="50" relative="1" as="geometry">
            <mxPoint x="757.5" y="869.5" as="sourcePoint"/>
            <mxPoint x="737.5" y="869.5" as="targetPoint"/>
          </mxGeometry>
        </mxCell>
        <mxCell id="zq5FpyVHTdPAyqJpxwwP-76" value="" style="endArrow=none;html=1;strokeWidth=2;" parent="1" edge="1">
          <mxGeometry width="50" height="50" relative="1" as="geometry">
            <mxPoint x="687.5" y="1200" as="sourcePoint"/>
            <mxPoint x="647" y="1219.5" as="targetPoint"/>
          </mxGeometry>
        </mxCell>
        <mxCell id="zq5FpyVHTdPAyqJpxwwP-77" value="" style="endArrow=none;html=1;strokeWidth=2;" parent="1" edge="1">
          <mxGeometry width="50" height="50" relative="1" as="geometry">
            <mxPoint x="688.5" y="1240" as="sourcePoint"/>
            <mxPoint x="647.5" y="1220" as="targetPoint"/>
          </mxGeometry>
        </mxCell>
        <mxCell id="zq5FpyVHTdPAyqJpxwwP-78" value="Número" style="text;html=1;strokeColor=none;fillColor=none;align=center;verticalAlign=middle;whiteSpace=wrap;rounded=0;fontStyle=4" parent="1" vertex="1">
          <mxGeometry x="687.5" y="1190" width="50" height="20" as="geometry"/>
        </mxCell>
        <mxCell id="zq5FpyVHTdPAyqJpxwwP-79" value="Finalidad" style="text;html=1;strokeColor=none;fillColor=none;align=center;verticalAlign=middle;whiteSpace=wrap;rounded=0;" parent="1" vertex="1">
          <mxGeometry x="687.5" y="1230" width="60" height="20" as="geometry"/>
        </mxCell>
        <mxCell id="zq5FpyVHTdPAyqJpxwwP-80" value="COD" style="text;html=1;strokeColor=none;fillColor=none;align=center;verticalAlign=middle;whiteSpace=wrap;rounded=0;fontStyle=4" parent="1" vertex="1">
          <mxGeometry x="687.5" y="1370" width="40" height="20" as="geometry"/>
        </mxCell>
        <mxCell id="zq5FpyVHTdPAyqJpxwwP-81" value="Sistema operativo" style="text;html=1;strokeColor=none;fillColor=none;align=center;verticalAlign=middle;whiteSpace=wrap;rounded=0;" parent="1" vertex="1">
          <mxGeometry x="687.5" y="1390" width="110" height="20" as="geometry"/>
        </mxCell>
        <mxCell id="zq5FpyVHTdPAyqJpxwwP-83" value="" style="endArrow=none;html=1;strokeWidth=2;exitX=0;exitY=0.5;exitDx=0;exitDy=0;" parent="1" source="zq5FpyVHTdPAyqJpxwwP-80" edge="1">
          <mxGeometry width="50" height="50" relative="1" as="geometry">
            <mxPoint x="687.5" y="1370" as="sourcePoint"/>
            <mxPoint x="647" y="1389.5" as="targetPoint"/>
          </mxGeometry>
        </mxCell>
        <mxCell id="zq5FpyVHTdPAyqJpxwwP-84" value="" style="endArrow=none;html=1;strokeWidth=2;exitX=0;exitY=0.5;exitDx=0;exitDy=0;" parent="1" source="zq5FpyVHTdPAyqJpxwwP-81" edge="1">
          <mxGeometry width="50" height="50" relative="1" as="geometry">
            <mxPoint x="697.5" y="1390" as="sourcePoint"/>
            <mxPoint x="647.5" y="1390" as="targetPoint"/>
          </mxGeometry>
        </mxCell>
        <mxCell id="YOil1B_cCwf1YzhHbvF5-1" value="COD" style="text;html=1;strokeColor=none;fillColor=none;align=center;verticalAlign=middle;whiteSpace=wrap;rounded=0;" parent="1" vertex="1">
          <mxGeometry x="613" y="475" width="40" height="20" as="geometry"/>
        </mxCell>
        <mxCell id="YOil1B_cCwf1YzhHbvF5-2" value="Nombre" style="text;html=1;strokeColor=none;fillColor=none;align=center;verticalAlign=middle;whiteSpace=wrap;rounded=0;" parent="1" vertex="1">
          <mxGeometry x="615" y="495" width="57" height="20" as="geometry"/>
        </mxCell>
        <mxCell id="YOil1B_cCwf1YzhHbvF5-3" value="Precio" style="text;html=1;strokeColor=none;fillColor=none;align=center;verticalAlign=middle;whiteSpace=wrap;rounded=0;" parent="1" vertex="1">
          <mxGeometry x="615" y="515" width="46" height="20" as="geometry"/>
        </mxCell>
        <mxCell id="YOil1B_cCwf1YzhHbvF5-4" value="" style="endArrow=none;html=1;strokeWidth=2;entryX=0.75;entryY=1;entryDx=0;entryDy=0;" parent="1" target="MQ059FCpELGgsUm1LF6T-32" edge="1">
          <mxGeometry width="50" height="50" relative="1" as="geometry">
            <mxPoint x="544" y="510" as="sourcePoint"/>
            <mxPoint x="552.5" y="514.5" as="targetPoint"/>
          </mxGeometry>
        </mxCell>
        <mxCell id="YOil1B_cCwf1YzhHbvF5-5" value="" style="endArrow=none;html=1;strokeWidth=2;exitX=0;exitY=0.5;exitDx=0;exitDy=0;" parent="1" source="YOil1B_cCwf1YzhHbvF5-3" edge="1">
          <mxGeometry width="50" height="50" relative="1" as="geometry">
            <mxPoint x="582" y="535" as="sourcePoint"/>
            <mxPoint x="543" y="510" as="targetPoint"/>
          </mxGeometry>
        </mxCell>
        <mxCell id="YOil1B_cCwf1YzhHbvF5-6" value="" style="endArrow=none;html=1;strokeWidth=2;entryX=0;entryY=0.5;entryDx=0;entryDy=0;" parent="1" target="YOil1B_cCwf1YzhHbvF5-2" edge="1">
          <mxGeometry width="50" height="50" relative="1" as="geometry">
            <mxPoint x="543" y="510" as="sourcePoint"/>
            <mxPoint x="553.5" y="470" as="targetPoint"/>
          </mxGeometry>
        </mxCell>
        <mxCell id="YOil1B_cCwf1YzhHbvF5-7" value="" style="endArrow=none;html=1;strokeWidth=2;" parent="1" edge="1">
          <mxGeometry width="50" height="50" relative="1" as="geometry">
            <mxPoint x="543" y="510" as="sourcePoint"/>
            <mxPoint x="613" y="485" as="targetPoint"/>
          </mxGeometry>
        </mxCell>
        <mxCell id="w-w4kN1X3PsQCVMSxzRM-6" value="" style="endArrow=none;html=1;" edge="1" parent="1">
          <mxGeometry width="50" height="50" relative="1" as="geometry">
            <mxPoint x="654" y="120" as="sourcePoint"/>
            <mxPoint x="953" y="120" as="targetPoint"/>
          </mxGeometry>
        </mxCell>
        <mxCell id="w-w4kN1X3PsQCVMSxzRM-8" value="" style="endArrow=none;html=1;" edge="1" parent="1">
          <mxGeometry width="50" height="50" relative="1" as="geometry">
            <mxPoint x="953" y="710" as="sourcePoint"/>
            <mxPoint x="953" y="120" as="targetPoint"/>
          </mxGeometry>
        </mxCell>
        <mxCell id="w-w4kN1X3PsQCVMSxzRM-9" value="" style="endArrow=none;html=1;exitX=1;exitY=0.5;exitDx=0;exitDy=0;" edge="1" parent="1" source="MQ059FCpELGgsUm1LF6T-43">
          <mxGeometry width="50" height="50" relative="1" as="geometry">
            <mxPoint x="679" y="709.5" as="sourcePoint"/>
            <mxPoint x="953.5" y="709.5" as="targetPoint"/>
          </mxGeometry>
        </mxCell>
      </root>
    </mxGraphModel>
  </diagram>
</mxfile>
